<?xml version="1.0" standalone="no"?>
<!DOCTYPE svg PUBLIC "-//W3C//DTD SVG 20010904//EN"
 "http://www.w3.org/TR/2001/REC-SVG-20010904/DTD/svg10.dtd">
<svg version="1.0" xmlns="http://www.w3.org/2000/svg"
 width="147.000000pt" height="147.000000pt" viewBox="0 0 147.000000 147.000000"
 preserveAspectRatio="xMidYMid meet">
<metadata>
Created by potrace 1.14, written by Peter Selinger 2001-2017
</metadata>
<g transform="translate(0.000000,147.000000) scale(0.100000,-0.100000)"
fill="#000000" stroke="none">
<path d="M474 1303 c-3 -16 -7 -33 -9 -40 -5 -14 30 -27 46 -18 12 8 9 54 -4
73 -15 19 -26 14 -33 -15z"/>
<path d="M904 1302 c-19 -12 -23 -40 -9 -58 11 -15 15 -16 29 -5 9 7 16 21 16
31 0 22 -22 41 -36 32z"/>
<path d="M1067 1292 c-21 -23 -21 -36 -3 -51 12 -10 18 -7 31 13 17 25 15 56
-3 56 -5 0 -16 -8 -25 -18z"/>
<path d="M347 1293 c-3 -7 -2 -30 2 -63 0 -5 10 -10 21 -10 21 0 27 30 14 64
-6 16 -30 22 -37 9z"/>
<path d="M605 1285 c-3 -8 -7 -22 -10 -30 -5 -17 24 -50 36 -38 4 4 11 20 14
35 5 21 2 29 -14 38 -17 9 -22 8 -26 -5z"/>
<path d="M750 1288 c0 -7 -3 -29 -6 -49 -5 -31 -3 -37 16 -42 25 -6 37 17 35
67 -1 24 -7 32 -23 34 -13 2 -22 -2 -22 -10z"/>
<path d="M1212 1247 c-37 -38 -38 -43 -13 -56 26 -14 98 53 80 75 -17 21 -32
17 -67 -19z"/>
<path d="M107 1227 c-2 -6 15 -34 39 -62 41 -46 45 -48 60 -33 15 15 13 20
-26 62 -44 47 -64 56 -73 33z"/>
<path d="M224 1225 c-8 -20 13 -45 37 -45 21 0 24 12 9 41 -13 23 -38 25 -46
4z"/>
<path d="M917 1195 c-21 -7 -46 -20 -55 -28 -9 -7 -32 -27 -50 -42 -18 -16
-46 -51 -62 -77 -17 -26 -32 -48 -35 -48 -2 0 -11 12 -19 28 -41 79 -155 155
-238 158 -196 8 -293 -136 -237 -351 47 -178 168 -341 340 -459 96 -66 120
-75 146 -49 10 10 54 47 98 83 44 36 87 72 96 80 8 8 40 38 70 66 125 117 188
196 231 291 40 88 43 152 13 227 -25 61 -37 74 -99 107 -49 26 -146 33 -199
14z"/>
<path d="M1278 1153 c-30 -15 -32 -21 -19 -42 18 -27 100 12 88 43 -8 19 -32
19 -69 -1z"/>
<path d="M93 1064 c-8 -22 9 -36 48 -37 46 -3 52 27 8 42 -42 14 -48 14 -56
-5z"/>
<path d="M1366 1049 c-71 -10 -87 -22 -63 -46 14 -15 25 -15 88 -6 80 13 88
17 73 41 -14 21 -24 22 -98 11z"/>
<path d="M23 993 c-7 -3 -13 -12 -13 -21 0 -22 123 -55 140 -38 13 13 13 36 0
36 -13 0 -12 0 -67 14 -27 7 -54 11 -60 9z"/>
<path d="M1281 894 c-11 -25 -3 -30 59 -37 41 -4 33 33 -11 49 -35 11 -37 11
-48 -12z"/>
<path d="M106 858 c-24 -13 -19 -35 8 -40 28 -6 56 7 56 26 0 17 -43 26 -64
14z"/>
<path d="M1233 815 c-7 -19 -11 -15 57 -59 59 -39 85 -45 94 -21 7 19 -21 48
-73 75 -48 24 -70 25 -78 5z"/>
<path d="M113 733 c-39 -11 -53 -20 -53 -34 0 -27 10 -29 74 -14 62 15 82 31
64 52 -13 16 -19 15 -85 -4z"/>
<path d="M1169 704 c-11 -14 -10 -20 14 -40 33 -28 40 -29 58 -8 11 14 10 20
-14 40 -33 28 -40 29 -58 8z"/>
<path d="M193 640 c-25 -10 -26 -11 -17 -34 3 -9 16 -16 28 -16 32 0 61 24 53
44 -7 18 -30 20 -64 6z"/>
<path d="M1100 635 c-15 -18 -11 -24 55 -75 53 -41 85 -47 85 -17 0 13 -105
107 -120 107 -4 0 -13 -7 -20 -15z"/>
<path d="M1024 545 c-6 -15 31 -54 52 -55 19 0 23 26 8 49 -17 24 -52 28 -60
6z"/>
<path d="M245 519 c-64 -41 -72 -52 -56 -77 13 -22 143 56 139 83 -4 30 -28
28 -83 -6z"/>
<path d="M955 484 c-14 -14 -13 -19 12 -49 32 -38 60 -52 76 -36 7 7 3 20 -13
44 -33 49 -55 61 -75 41z"/>
<path d="M353 453 c-26 -18 -30 -48 -8 -57 8 -3 26 5 41 17 25 22 25 23 7 39
-16 14 -20 14 -40 1z"/>
<path d="M846 403 c-6 -14 18 -42 37 -43 14 0 20 31 8 43 -17 17 -39 17 -45 0z"/>
<path d="M456 376 c-14 -23 -14 -26 0 -41 15 -15 18 -15 35 1 23 21 25 50 3
58 -21 8 -20 9 -38 -18z"/>
<path d="M756 334 c-8 -20 20 -48 39 -40 18 7 19 28 3 44 -17 17 -35 15 -42
-4z"/>
<path d="M554 315 c-17 -26 -13 -55 8 -55 19 0 40 38 33 61 -8 26 -21 24 -41
-6z"/>
<path d="M634 220 c-8 -47 -7 -63 2 -71 19 -16 30 -4 43 45 17 69 15 86 -12
86 -21 0 -24 -7 -33 -60z"/>
</g>
</svg>
